<svg width="430" height="80" viewBox="0 0 430 80" fill="none" xmlns="http://www.w3.org/2000/svg">
<path d="M207.967 40C223.183 40 236.423 31.5836 243.245 19.1729C248.567 9.49343 257.109 0 268.154 0H404.883C418.755 0 430 11.1929 430 25V70C430 75.5229 425.502 80 419.953 80H10.0467C4.49807 80 0 75.5229 0 70V25C0 11.1929 11.2452 0 25.1168 0H147.78C158.826 0 167.368 9.49342 172.689 19.1729C179.512 31.5836 192.752 40 207.967 40Z" fill="#93E9D4"/>
<rect x="416" y="61" width="14" height="19" fill="#93E9D4"/>
<rect y="55" width="17" height="25" fill="#93E9D4"/>
</svg>
